<?xml version="1.0" encoding="UTF-8" standalone="no"?><!DOCTYPE svg PUBLIC "-//W3C//DTD SVG 1.1//EN" "http://www.w3.org/Graphics/SVG/1.1/DTD/svg11.dtd"><svg width="100%" height="100%" viewBox="0 0 369 369" version="1.1" xmlns="http://www.w3.org/2000/svg" xmlns:xlink="http://www.w3.org/1999/xlink" xml:space="preserve" xmlns:serif="http://www.serif.com/" style="fill-rule:evenodd;clip-rule:evenodd;stroke-linejoin:round;stroke-miterlimit:2;"><rect id="Dark-mode--Kc-" serif:id="Dark mode (Kc)" x="0" y="0" width="368.64" height="368.64" style="fill:none;"/><clipPath id="_clip1"><rect x="0" y="0" width="368.64" height="368.64"/></clipPath><g clip-path="url(#_clip1)"><rect x="0" y="0" width="368.64" height="368.64" style="fill:#0d0d0d;"/><path d="M267.696,279.504c-29.696,-0 -52.693,-7.808 -68.992,-23.424c-16.299,-15.616 -24.448,-38.101 -24.448,-67.456c0,-29.525 7.979,-52.053 23.936,-67.584c15.957,-15.531 38.784,-23.296 68.48,-23.296c12.459,-0 23.765,1.237 33.92,3.712c10.155,2.475 18.731,6.016 25.728,10.624c1.707,1.195 2.56,2.56 2.56,4.096c-0,1.365 -0.512,2.816 -1.536,4.352l-8.96,15.616c-1.195,1.877 -2.389,2.816 -3.584,2.816c-1.024,-0 -2.475,-0.512 -4.352,-1.536c-10.923,-6.144 -23.808,-9.216 -38.656,-9.216c-17.579,-0 -31.232,5.077 -40.96,15.232c-9.728,10.155 -14.592,25.216 -14.592,45.184c-0,20.139 5.077,35.243 15.232,45.312c10.155,10.069 24.021,15.104 41.6,15.104c16.043,-0 29.525,-3.072 40.448,-9.216c1.877,-1.024 3.328,-1.536 4.352,-1.536c1.195,-0 2.389,0.939 3.584,2.816l9.984,17.152c0.683,1.195 1.024,2.219 1.024,3.072c-0,1.024 -1.024,2.304 -3.072,3.84c-13.312,9.557 -33.877,14.336 -61.696,14.336Z" style="fill:#f9f9f9;fill-rule:nonzero;"/><path d="M184.628,267.216c1.024,1.195 1.536,2.56 1.536,4.096c-0,2.901 -1.536,4.352 -4.608,4.352l-32,-0c-2.048,-0 -3.627,-0.213 -4.736,-0.64c-1.109,-0.427 -2.176,-1.237 -3.2,-2.432l-56.576,-74.24l-0.768,-1.024l-0,67.328c-0,3.755 -0.853,6.528 -2.56,8.32c-1.707,1.792 -4.693,2.688 -8.96,2.688l-19.2,0c-4.096,0 -7.04,-0.896 -8.832,-2.688c-1.792,-1.792 -2.688,-4.565 -2.688,-8.32l-0,-151.808c-0,-3.755 0.896,-6.571 2.688,-8.448c1.792,-1.877 4.736,-2.816 8.832,-2.816l19.2,0c4.267,0 7.253,0.896 8.96,2.688c1.707,1.792 2.56,4.651 2.56,8.576l-0,66.048l55.552,-73.984c1.024,-1.365 2.091,-2.261 3.2,-2.688c1.109,-0.427 2.859,-0.64 5.248,-0.64l31.488,-0c3.072,-0 4.608,1.451 4.608,4.352c-0,1.365 -0.512,2.731 -1.536,4.096l-60.672,78.08l62.464,79.104Z" style="fill:#ff787c;fill-rule:nonzero;"/></g></svg>